function data()
return {
	subMeshes = {
		{
			indices = {
				normal = {
					count = 128148,
					offset = 1340536,
				},
				position = {
					count = 128148,
					offset = 1084240,
				},
				tangent = {
					count = 128148,
					offset = 1468684,
				},
				uv0 = {
					count = 128148,
					offset = 1212388,
				},
			},
		},
	},
	vertexAttr = {
		normal = {
			count = 384444,
			numComp = 3,
			offset = 187204,
		},
		position = {
			count = 103164,
			numComp = 3,
			offset = 0,
		},
		tangent = {
			count = 512592,
			numComp = 4,
			offset = 571648,
		},
		uv0 = {
			count = 84040,
			numComp = 2,
			offset = 103164,
		},
	},
}
end
