function data()
return {
	subMeshes = {
		{
			indices = {
				normal = {
					count = 360,
					offset = 47224,
				},
				position = {
					count = 360,
					offset = 46504,
				},
				tangent = {
					count = 360,
					offset = 47584,
				},
				uv0 = {
					count = 360,
					offset = 46864,
				},
			},
		},
		{
			indices = {
				normal = {
					count = 4752,
					offset = 57448,
				},
				position = {
					count = 4752,
					offset = 47944,
				},
				tangent = {
					count = 4752,
					offset = 62200,
				},
				uv0 = {
					count = 4752,
					offset = 52696,
				},
			},
		},
	},
	vertexAttr = {
		normal = {
			count = 15336,
			numComp = 3,
			offset = 10720,
		},
		position = {
			count = 6240,
			numComp = 3,
			offset = 0,
		},
		tangent = {
			count = 20448,
			numComp = 4,
			offset = 26056,
		},
		uv0 = {
			count = 4480,
			numComp = 2,
			offset = 6240,
		},
	},
}
end
