function data()
return { 
		subMeshes = {
			{ 
				indices = { 
					normal = { 
						count = 18996,
						offset = 107816,
					},
					position = { 
						count = 18996,
						offset = 69824,
					},
					tangent = { 
						count = 18996,
						offset = 126812,
					},
					uv0 = { 
						count = 18996,
						offset = 88820,
					},
				},
			},
		},
		vertexAttr = { 
			normal = { 
				count = 13272,
				numComp = 3,
				offset = 30168,
			},
			position = { 
				count = 17016,
				numComp = 3,
				offset = 0,
			},
			tangent = { 
				count = 26384,
				numComp = 4,
				offset = 43440,
			},
			uv0 = { 
				count = 13152,
				numComp = 2,
				offset = 17016,
			},
		},
	}
end